<svg width="25" height="25" viewBox="0 0 25 25" fill="none" xmlns="http://www.w3.org/2000/svg">
<g clip-path="url(#clip0_20_27)">
<path d="M24.5 12.4C24.5 15.5826 23.2357 18.6348 20.9853 20.8853C18.7348 23.1357 15.6826 24.4 12.5 24.4C9.3174 24.4 6.26516 23.1357 4.01472 20.8853C1.76428 18.6348 0.5 15.5826 0.5 12.4C0.5 9.2174 1.76428 6.16515 4.01472 3.91471C6.26516 1.66428 9.3174 0.399994 12.5 0.399994C15.6826 0.399994 18.7348 1.66428 20.9853 3.91471C23.2357 6.16515 24.5 9.2174 24.5 12.4ZM8.744 9.44949H9.9815C10.1885 9.44949 10.3535 9.27999 10.3805 9.07449C10.5155 8.09049 11.1905 7.37349 12.3935 7.37349C13.4225 7.37349 14.3645 7.88799 14.3645 9.12549C14.3645 10.078 13.8035 10.516 12.917 11.182C11.9075 11.9155 11.108 12.772 11.165 14.1625L11.1695 14.488C11.1711 14.5864 11.2113 14.6803 11.2814 14.7493C11.3516 14.8183 11.4461 14.857 11.5445 14.857H12.761C12.8605 14.857 12.9558 14.8175 13.0262 14.7472C13.0965 14.6768 13.136 14.5814 13.136 14.482V14.3245C13.136 13.2475 13.5455 12.934 14.651 12.0955C15.5645 11.401 16.517 10.63 16.517 9.01149C16.517 6.74499 14.603 5.64999 12.5075 5.64999C10.607 5.64999 8.525 6.53499 8.3825 9.07899C8.38045 9.12743 8.38832 9.17578 8.40565 9.22107C8.42297 9.26635 8.44937 9.30761 8.48323 9.34232C8.51709 9.37702 8.55769 9.40443 8.60254 9.42286C8.64738 9.44129 8.69552 9.45036 8.744 9.44949ZM12.2315 19.114C13.1465 19.114 13.775 18.523 13.775 17.7235C13.775 16.8955 13.145 16.3135 12.2315 16.3135C11.3555 16.3135 10.718 16.8955 10.718 17.7235C10.718 18.523 11.3555 19.114 12.233 19.114H12.2315Z" fill="#A1A0BD"/>
</g>
<defs>
<clipPath id="clip0_20_27">
<rect width="24" height="24" fill="white" transform="translate(0.5 0.399994)"/>
</clipPath>
</defs>
</svg>
