<svg width="25" height="25" viewBox="0 0 25 25" fill="none" xmlns="http://www.w3.org/2000/svg">
<g clip-path="url(#clip0_20_21)">
<path d="M2.49951 4.20049C2.49951 1.99099 6.97701 0.199993 12.5 0.199993C18.023 0.199993 22.5005 1.99099 22.5005 4.20049V6.19999C22.5005 8.40949 18.023 10.2005 12.5 10.2005C6.97701 10.2005 2.49951 8.40949 2.49951 6.19999V4.20049Z" fill="#4C49ED"/>
<path d="M2.49951 9.70098V14.201C2.49951 16.4075 6.97701 18.2 12.5 18.2C18.023 18.2 22.5005 16.409 22.5005 14.1995V9.70098C21.825 10.1876 21.09 10.5858 20.3135 10.886C18.215 11.726 15.4505 12.2 12.5 12.2C9.55101 12.2 6.78651 11.7245 4.68801 10.886C3.91146 10.5859 3.1765 10.1876 2.50101 9.70098H2.49951Z" fill="#4C49ED"/>
<path d="M22.5005 17.702C21.8249 18.1881 21.09 18.5858 20.3135 18.8855C18.2135 19.7255 15.4505 20.1995 12.4985 20.1995C9.54951 20.1995 6.78501 19.7255 4.68651 18.8855C3.90998 18.5853 3.17502 18.1871 2.49951 17.7005V20.1995C2.49951 22.409 6.97701 24.2 12.5 24.2C18.023 24.2 22.5005 22.409 22.5005 20.1995V17.702Z" fill="#4C49ED"/>
</g>
<defs>
<clipPath id="clip0_20_21">
<rect width="24" height="24" fill="white" transform="translate(0.5 0.199993)"/>
</clipPath>
</defs>
</svg>
