<svg width="106" height="27" viewBox="0 0 106 27" fill="none" xmlns="http://www.w3.org/2000/svg">
<path d="M24.75 19.125C24.75 20.015 24.4861 20.885 23.9916 21.6251C23.4971 22.3651 22.7943 22.9419 21.9721 23.2825C21.1498 23.6231 20.245 23.7122 19.3721 23.5385C18.4992 23.3649 17.6974 22.9363 17.068 22.307C16.4387 21.6776 16.0101 20.8758 15.8365 20.0029C15.6628 19.13 15.7519 18.2252 16.0925 17.4029C16.4331 16.5807 17.0099 15.8779 17.7499 15.3834C18.49 14.8889 19.36 14.625 20.25 14.625C21.4435 14.625 22.5881 15.0991 23.432 15.943C24.2759 16.7869 24.75 17.9315 24.75 19.125ZM23.625 3.375H4.5C3.90326 3.375 3.33097 3.61205 2.90901 4.03401C2.48705 4.45597 2.25 5.02826 2.25 5.625V21.375C2.25 21.9717 2.48705 22.544 2.90901 22.966C3.33097 23.3879 3.90326 23.625 4.5 23.625H15.2325C14.0753 22.3425 13.4547 20.6646 13.499 18.9377C13.5433 17.2109 14.249 15.567 15.4705 14.3455C16.692 13.124 18.3359 12.4183 20.0627 12.374C21.7896 12.3297 23.4675 12.9503 24.75 14.1075V9C24.75 8.70163 24.6315 8.41548 24.4205 8.2045C24.2095 7.99353 23.9234 7.875 23.625 7.875H5.625C5.32663 7.875 5.04048 7.75647 4.8295 7.54549C4.61853 7.33452 4.5 7.04837 4.5 6.75C4.5 6.45163 4.61853 6.16548 4.8295 5.9545C5.04048 5.74353 5.32663 5.625 5.625 5.625H24.75V4.5C24.75 4.20163 24.6315 3.91548 24.4205 3.7045C24.2095 3.49353 23.9234 3.375 23.625 3.375Z" fill="white"/>
<path d="M35.365 21.5V6.695H45.76V9.656H39.25V12.659H45.277V15.62H39.25V21.5H35.365ZM47.3982 21.5V10.832H51.1362V21.5H47.3982ZM47.3142 9.32V5.96H51.2412V9.32H47.3142ZM53.448 21.5V13.73C53.448 13.254 53.434 12.771 53.406 12.281C53.378 11.791 53.336 11.308 53.28 10.832H56.892L57.102 12.68H56.871C57.221 12.008 57.718 11.497 58.362 11.147C59.006 10.783 59.734 10.601 60.546 10.601C61.792 10.601 62.723 10.972 63.339 11.714C63.969 12.442 64.284 13.583 64.284 15.137V21.5H60.546V15.305C60.546 14.619 60.427 14.143 60.189 13.877C59.951 13.597 59.608 13.457 59.16 13.457C58.572 13.457 58.096 13.653 57.732 14.045C57.368 14.423 57.186 14.927 57.186 15.557V21.5H53.448ZM70.732 21.731C69.808 21.731 68.996 21.514 68.296 21.08C67.596 20.632 67.043 19.988 66.637 19.148C66.245 18.308 66.049 17.314 66.049 16.166C66.049 15.004 66.245 14.01 66.637 13.184C67.043 12.344 67.596 11.707 68.296 11.273C68.996 10.825 69.808 10.601 70.732 10.601C71.558 10.601 72.3 10.797 72.958 11.189C73.63 11.581 74.071 12.092 74.281 12.722H74.071L74.302 10.832H77.893C77.851 11.308 77.809 11.791 77.767 12.281C77.739 12.771 77.725 13.254 77.725 13.73V21.5H74.029L73.987 19.694H74.239C74.029 20.31 73.588 20.807 72.916 21.185C72.258 21.549 71.53 21.731 70.732 21.731ZM71.929 18.959C72.559 18.959 73.07 18.742 73.462 18.308C73.854 17.86 74.05 17.146 74.05 16.166C74.05 15.186 73.854 14.479 73.462 14.045C73.07 13.597 72.559 13.373 71.929 13.373C71.299 13.373 70.788 13.597 70.396 14.045C70.004 14.479 69.808 15.186 69.808 16.166C69.808 17.146 69.997 17.86 70.375 18.308C70.767 18.742 71.285 18.959 71.929 18.959ZM80.0466 26.036V13.73C80.0466 13.254 80.0326 12.771 80.0046 12.281C79.9766 11.791 79.9346 11.308 79.8786 10.832H83.4906L83.7216 12.722H83.5116C83.7076 12.092 84.1416 11.581 84.8136 11.189C85.4856 10.797 86.2346 10.601 87.0606 10.601C87.9846 10.601 88.7966 10.825 89.4966 11.273C90.1966 11.707 90.7426 12.344 91.1346 13.184C91.5406 14.01 91.7436 15.004 91.7436 16.166C91.7436 17.314 91.5406 18.308 91.1346 19.148C90.7426 19.988 90.1966 20.632 89.4966 21.08C88.7966 21.514 87.9846 21.731 87.0606 21.731C86.2486 21.731 85.5136 21.549 84.8556 21.185C84.1976 20.807 83.7636 20.31 83.5536 19.694H83.7846V26.036H80.0466ZM85.8636 18.959C86.5076 18.959 87.0186 18.742 87.3966 18.308C87.7886 17.86 87.9846 17.146 87.9846 16.166C87.9846 15.186 87.7886 14.479 87.3966 14.045C87.0186 13.597 86.5076 13.373 85.8636 13.373C85.2336 13.373 84.7226 13.597 84.3306 14.045C83.9386 14.479 83.7426 15.186 83.7426 16.166C83.7426 17.146 83.9386 17.86 84.3306 18.308C84.7226 18.742 85.2336 18.959 85.8636 18.959ZM93.5613 26.036V13.73C93.5613 13.254 93.5473 12.771 93.5193 12.281C93.4913 11.791 93.4493 11.308 93.3933 10.832H97.0053L97.2363 12.722H97.0263C97.2223 12.092 97.6563 11.581 98.3283 11.189C99.0003 10.797 99.7493 10.601 100.575 10.601C101.499 10.601 102.311 10.825 103.011 11.273C103.711 11.707 104.257 12.344 104.649 13.184C105.055 14.01 105.258 15.004 105.258 16.166C105.258 17.314 105.055 18.308 104.649 19.148C104.257 19.988 103.711 20.632 103.011 21.08C102.311 21.514 101.499 21.731 100.575 21.731C99.7633 21.731 99.0283 21.549 98.3703 21.185C97.7123 20.807 97.2783 20.31 97.0683 19.694H97.2993V26.036H93.5613ZM99.3783 18.959C100.022 18.959 100.533 18.742 100.911 18.308C101.303 17.86 101.499 17.146 101.499 16.166C101.499 15.186 101.303 14.479 100.911 14.045C100.533 13.597 100.022 13.373 99.3783 13.373C98.7483 13.373 98.2373 13.597 97.8453 14.045C97.4533 14.479 97.2573 15.186 97.2573 16.166C97.2573 17.146 97.4533 17.86 97.8453 18.308C98.2373 18.742 98.7483 18.959 99.3783 18.959Z" fill="white"/>
</svg>
