<svg width="24" height="25" viewBox="0 0 24 25" fill="none" xmlns="http://www.w3.org/2000/svg">
<path fill-rule="evenodd" clip-rule="evenodd" d="M18 12.5C18 12.6989 17.921 12.8897 17.7803 13.0303C17.6397 13.171 17.4489 13.25 17.25 13.25H8.5605L11.781 16.469C11.8507 16.5387 11.906 16.6215 11.9438 16.7126C11.9815 16.8037 12.0009 16.9014 12.0009 17C12.0009 17.0986 11.9815 17.1963 11.9438 17.2874C11.906 17.3785 11.8507 17.4613 11.781 17.531C11.7113 17.6007 11.6285 17.656 11.5374 17.6938C11.4463 17.7315 11.3486 17.7509 11.25 17.7509C11.1514 17.7509 11.0537 17.7315 10.9626 17.6938C10.8715 17.656 10.7887 17.6007 10.719 17.531L6.219 13.031C6.14915 12.9613 6.09374 12.8786 6.05593 12.7875C6.01812 12.6963 5.99866 12.5987 5.99866 12.5C5.99866 12.4014 6.01812 12.3037 6.05593 12.2126C6.09374 12.1214 6.14915 12.0387 6.219 11.969L10.719 7.469C10.8598 7.32817 11.0508 7.24905 11.25 7.24905C11.4492 7.24905 11.6402 7.32817 11.781 7.469C11.9218 7.60983 12.0009 7.80084 12.0009 8C12.0009 8.19917 11.9218 8.39017 11.781 8.531L8.5605 11.75H17.25C17.4489 11.75 17.6397 11.829 17.7803 11.9697C17.921 12.1103 18 12.3011 18 12.5Z" fill="#A1A0BD"/>
</svg>
