<svg width="25" height="25" viewBox="0 0 25 25" fill="none" xmlns="http://www.w3.org/2000/svg">
<path d="M2 17.1C2 16.7022 2.15804 16.3206 2.43934 16.0393C2.72064 15.758 3.10218
 15.6 3.5 15.6H6.5C6.89782 15.6 7.27936 15.758 7.56066 16.0393C7.84196 16.3206 8 
 16.7022 8 17.1V21.6C8 21.9978 7.84196 22.3793 7.56066 22.6606C7.27936 22.942 6.89782
  23.1 6.5 23.1H3.5C3.10218 23.1 2.72064 22.942 2.43934 22.6606C2.15804 22.3793 2
   21.9978 2 21.6V17.1ZM9.5 11.1C9.5 10.7022 9.65804 10.3206 9.93934 10.0393C10.2206 
   9.75802 10.6022 9.59999 11 9.59999H14C14.3978 9.59999 14.7794 9.75802 15.0607 
   10.0393C15.342 10.3206 15.5 10.7022 15.5 11.1V21.6C15.5 21.9978 15.342 22.3793
    15.0607 22.6606C14.7794 22.942 14.3978 23.1 14 23.1H11C10.6022 23.1 10.2206 
    22.942 9.93934 22.6606C9.65804 22.3793 9.5 21.9978 9.5 21.6V11.1ZM17 3.59999C17
     3.20216 17.158 2.82063 17.4393 2.53933C17.7206 2.25802 18.1022 2.09999 18.5 
     2.09999H21.5C21.8978 2.09999 22.2794 2.25802 22.5607 2.53933C22.842 2.82063 
     23 3.20216 23 3.59999V21.6C23 21.9978 22.842 22.3793 22.5607 22.6606C22.2794
      22.942 21.8978 23.1 21.5 23.1H18.5C18.1022 23.1 17.7206 22.942 17.4393 
      22.6606C17.158 22.3793 17 21.9978 17 21.6V3.59999Z" fill="#4C49ED"/>
</svg>
