<svg width="25" height="25" viewBox="0 0 25 25" fill="none" xmlns="http://www.w3.org/2000/svg">
<g clip-path="url(#clip0_20_25)">
<path d="M14.6075 2.375C13.988 0.275003 11.012 0.275003 10.3925 2.375L10.2425 2.885C10.1499 3.19939 9.98818 3.48908 9.76909 3.73282C9.55 3.97656 9.27913 4.16817 8.97634 4.2936C8.67356 4.41903 8.34654 4.47509 8.01927 4.45769C7.692 4.44028 7.37277 4.34984 7.085 4.193L6.62 3.938C4.6955 2.891 2.591 4.9955 3.6395 6.9185L3.893 7.385C4.562 8.615 3.9275 10.1465 2.585 10.5425L2.075 10.6925C-0.025 11.312 -0.025 14.288 2.075 14.9075L2.585 15.0575C2.89939 15.1501 3.18908 15.3118 3.43282 15.5309C3.67656 15.75 3.86817 16.0209 3.9936 16.3237C4.11902 16.6264 4.17509 16.9535 4.15768 17.2807C4.14028 17.608 4.04984 17.9272 3.893 18.215L3.638 18.68C2.591 20.6045 4.6955 22.709 6.6185 21.6605L7.085 21.407C7.37277 21.2502 7.692 21.1597 8.01927 21.1423C8.34654 21.1249 8.67356 21.181 8.97634 21.3064C9.27913 21.4318 9.55 21.6234 9.76909 21.8672C9.98818 22.1109 10.1499 22.4006 10.2425 22.715L10.3925 23.225C11.012 25.325 13.988 25.325 14.6075 23.225L14.7575 22.715C14.8501 22.4006 15.0118 22.1109 15.2309 21.8672C15.45 21.6234 15.7209 21.4318 16.0237 21.3064C16.3264 21.181 16.6535 21.1249 16.9807 21.1423C17.308 21.1597 17.6272 21.2502 17.915 21.407L18.38 21.662C20.3045 22.709 22.409 20.6045 21.3605 18.6815L21.107 18.215C20.9502 17.9272 20.8597 17.608 20.8423 17.2807C20.8249 16.9535 20.881 16.6264 21.0064 16.3237C21.1318 16.0209 21.3234 15.75 21.5672 15.5309C21.8109 15.3118 22.1006 15.1501 22.415 15.0575L22.925 14.9075C25.025 14.288 25.025 11.312 22.925 10.6925L22.415 10.5425C22.1006 10.4499 21.8109 10.2882 21.5672 10.0691C21.3234 9.85 21.1318 9.57913 21.0064 9.27635C20.881 8.97356 20.8249 8.64654 20.8423 8.31927C20.8597 7.992 20.9502 7.67277 21.107 7.385L21.362 6.92C22.409 4.9955 20.3045 2.891 18.3815 3.9395L17.915 4.193C17.6272 4.34984 17.308 4.44028 16.9807 4.45769C16.6535 4.47509 16.3264 4.41903 16.0237 4.2936C15.7209 4.16817 15.45 3.97656 15.2309 3.73282C15.0118 3.48908 14.8501 3.19939 14.7575 2.885L14.6075 2.375ZM12.5 17.195C11.3344 17.195 10.2165 16.732 9.39227 15.9077C8.56804 15.0835 8.105 13.9656 8.105 12.8C8.105 11.6344 8.56804 10.5165 9.39227 9.69227C10.2165 8.86805 11.3344 8.405 12.5 8.405C13.6652 8.405 14.7827 8.86789 15.6067 9.69183C16.4306 10.5158 16.8935 11.6333 16.8935 12.7985C16.8935 13.9637 16.4306 15.0812 15.6067 15.9052C14.7827 16.7291 13.6652 17.192 12.5 17.192V17.195Z" fill="#A1A0BD"/>
</g>
<defs>
<clipPath id="clip0_20_25">
<rect width="24" height="24" fill="white" transform="translate(0.5 0.800003)"/>
</clipPath>
</defs>
</svg>
