<svg width="25" height="24" viewBox="0 0 25 24" fill="none" xmlns="http://www.w3.org/2000/svg">
<g clip-path="url(#clip0_20_16)">
<path d="M2.75 3C2.15326 3 1.58097 3.23705 1.15901 3.65901C0.737053 4.08097 0.5 4.65326 0.5 5.25L0.5 8.25H9.5C9.69891 8.25 9.88968 8.32902 10.0303 8.46967C10.171 8.61032 10.25 8.80109 10.25 9C10.25 9.3795 10.37 9.966 10.709 10.437C11.0195 10.869 11.5445 11.25 12.5 11.25C13.4555 11.25 13.9805 10.869 14.291 10.437C14.63 9.966 14.75 9.3795 14.75 9C14.75 8.80109 14.829 8.61032 14.9697 8.46967C15.1103 8.32902 15.3011 8.25 15.5 8.25H24.5V5.25C24.5 4.65326 24.2629 4.08097 23.841 3.65901C23.419 3.23705 22.8467 3 22.25 3H2.75Z" fill="#A1A0BD"/>
<path d="M24.5 9.75H16.1735C16.0659 10.3124 15.8394 10.8453 15.509 11.313C14.9195 12.132 13.9445 12.75 12.5 12.75C11.0555 12.75 10.0805 12.132 9.491 11.313C9.16067 10.8453 8.93411 10.3124 8.8265 9.75H0.5V18.75C0.5 19.3467 0.737053 19.919 1.15901 20.341C1.58097 20.7629 2.15326 21 2.75 21H22.25C22.8467 21 23.419 20.7629 23.841 20.341C24.2629 19.919 24.5 19.3467 24.5 18.75V9.75Z" fill="#A1A0BD"/>
</g>
<defs>
<clipPath id="clip0_20_16">
<rect width="24" height="24" fill="white" transform="translate(0.5)"/>
</clipPath>
</defs>
</svg>
