<svg width="42" height="43" viewBox="0 0 42 43" fill="none" xmlns="http://www.w3.org/2000/svg">
<circle cx="21" cy="21.4051" r="21" fill="#F5DCDC"/>
<path fill-rule="evenodd" clip-rule="evenodd" d="M21 15.9051C20.8011 15.9051 20.6103 15.9841 20.4697 16.1248C20.329 16.2654 20.25 16.4562 20.25 16.6551L20.25 25.3446L17.031 22.1241C16.9613 22.0544 16.8785 21.999 16.7874 21.9613C16.6963 21.9236 16.5986 21.9041 16.5 21.9041C16.4014 21.9041 16.3037 21.9236 16.2126 21.9613C16.1215 21.999 16.0387 22.0544 15.969 22.1241C15.8993 22.1938 15.844 22.2766 15.8062 22.3677C15.7685 22.4588 15.7491 22.5565 15.7491 22.6551C15.7491 22.7537 15.7685 22.8514 15.8062 22.9425C15.844 23.0336 15.8993 23.1164 15.969 23.1861L20.469 27.6861C20.5387 27.7559 20.6214 27.8114 20.7125 27.8492C20.8037 27.887 20.9013 27.9064 21 27.9064C21.0986 27.9064 21.1963 27.887 21.2874 27.8492C21.3786 27.8114 21.4613 27.7559 21.531 27.6861L26.031 23.1861C26.1718 23.0453 26.2509 22.8543 26.2509 22.6551C26.2509 22.4559 26.1718 22.2649 26.031 22.1241C25.8902 21.9833 25.6992 21.9041 25.5 21.9041C25.3008 21.9041 25.1098 21.9833 24.969 22.1241L21.75 25.3446L21.75 16.6551C21.75 16.4562 21.671 16.2654 21.5303 16.1248C21.3897 15.9841 21.1989 15.9051 21 15.9051Z" fill="#D14F4F"/>
</svg>
