<svg width="42" height="43" viewBox="0 0 42 43" fill="none" xmlns="http://www.w3.org/2000/svg">
<circle cx="21" cy="21.2153" r="21" fill="#DCF5E8"/>
<path fill-rule="evenodd" clip-rule="evenodd" d="M21 27.7153C20.8011 27.7153 20.6103 27.6363 20.4697 27.4956C20.329 27.3549 20.25 27.1642 20.25 26.9653L20.25 18.2758L17.031 21.4963C16.9613 21.566 16.8785 21.6213 16.7874 21.6591C16.6963 21.6968 16.5986 21.7162 16.5 21.7162C16.4014 21.7162 16.3037 21.6968 16.2126 21.6591C16.1215 21.6213 16.0387 21.566 15.969 21.4963C15.8993 21.4265 15.844 21.3438 15.8062 21.2526C15.7685 21.1615 15.7491 21.0639 15.7491 20.9653C15.7491 20.8667 15.7685 20.769 15.8062 20.6779C15.844 20.5868 15.8993 20.504 15.969 20.4343L20.469 15.9343C20.5387 15.8644 20.6214 15.809 20.7125 15.7712C20.8037 15.7334 20.9013 15.7139 21 15.7139C21.0986 15.7139 21.1963 15.7334 21.2874 15.7712C21.3786 15.809 21.4613 15.8644 21.531 15.9343L26.031 20.4343C26.1718 20.5751 26.2509 20.7661 26.2509 20.9653C26.2509 21.1644 26.1718 21.3554 26.031 21.4963C25.8902 21.6371 25.6992 21.7162 25.5 21.7162C25.3008 21.7162 25.1098 21.6371 24.969 21.4963L21.75 18.2758L21.75 26.9653C21.75 27.1642 21.671 27.3549 21.5303 27.4956C21.3897 27.6363 21.1989 27.7153 21 27.7153Z" fill="#4FD18B"/>
</svg>
