<svg width="42" height="43" viewBox="0 0 42 43" fill="none" xmlns="http://www.w3.org/2000/svg">
<circle cx="21" cy="21.0254" r="21" fill="#E1E1F5"/>
<g clip-path="url(#clip0_184_121)">
<path d="M13.5 12.5254C13.5 11.7297 13.8161 10.9667 14.3787 10.4041C14.9413 9.84146 15.7044 9.52539 16.5 9.52539H25.5C26.2956 9.52539 27.0587 9.84146 27.6213 10.4041C28.1839 10.9667 28.5 11.7297 28.5 12.5254V30.5254C28.5 31.321 28.1839 32.0841 27.6213 32.6467C27.0587 33.2093 26.2956 33.5254 25.5 33.5254H16.5C15.7044 33.5254 14.9413 33.2093 14.3787 32.6467C13.8161 32.0841 13.5 31.321 13.5 30.5254V12.5254ZM22.5 29.0254C22.5 28.6276 22.342 28.246 22.0607 27.9647C21.7794 27.6834 21.3978 27.5254 21 27.5254C20.6022 27.5254 20.2206 27.6834 19.9393 27.9647C19.658 28.246 19.5 28.6276 19.5 29.0254C19.5 29.4232 19.658 29.8047 19.9393 30.0861C20.2206 30.3674 20.6022 30.5254 21 30.5254C21.3978 30.5254 21.7794 30.3674 22.0607 30.0861C22.342 29.8047 22.5 29.4232 22.5 29.0254Z" fill="#4C49ED"/>
</g>
<defs>
<clipPath id="clip0_184_121">
<rect width="24" height="24" fill="white" transform="translate(9 9.52539)"/>
</clipPath>
</defs>
</svg>
